<?xml version="1.0" encoding="utf-8" standalone="no"?>
<!DOCTYPE svg PUBLIC "-//W3C//DTD SVG 1.1//EN"
  "http://www.w3.org/Graphics/SVG/1.1/DTD/svg11.dtd">
<svg xmlns:xlink="http://www.w3.org/1999/xlink" width="501.567476pt" height="365.591243pt" viewBox="0 0 501.567476 365.591243" xmlns="http://www.w3.org/2000/svg" version="1.1">
 <metadata>
  <rdf:RDF xmlns:dc="http://purl.org/dc/elements/1.1/" xmlns:cc="http://creativecommons.org/ns#" xmlns:rdf="http://www.w3.org/1999/02/22-rdf-syntax-ns#">
   <cc:Work>
    <dc:type rdf:resource="http://purl.org/dc/dcmitype/StillImage"/>
    <dc:date>2023-06-01T17:33:53.116290</dc:date>
    <dc:format>image/svg+xml</dc:format>
    <dc:creator>
     <cc:Agent>
      <dc:title>Matplotlib v3.7.1, https://matplotlib.org/</dc:title>
     </cc:Agent>
    </dc:creator>
   </cc:Work>
  </rdf:RDF>
 </metadata>
 <defs>
  <style type="text/css">*{stroke-linejoin: round; stroke-linecap: butt}</style>
 </defs>
 <g id="figure_1">
  <g id="patch_1">
   <path d="M 0 365.591243 
L 501.567476 365.591243 
L 501.567476 -0 
L 0 -0 
L 0 365.591243 
z
" style="fill: none"/>
  </g>
  <g id="axes_1">
   <g id="patch_2">
    <path d="M 33.996614 172.624496 
C 38.768994 206.103948 56.068099 236.557639 82.380889 257.801142 
C 108.693678 279.044645 142.109657 289.535531 175.842828 287.143349 
C 209.575998 284.751166 241.177093 269.649605 264.228674 244.905435 
C 287.280254 220.161265 300.108614 187.571089 300.108614 153.753205 
L 166.383486 153.753205 
C 166.383486 153.753205 166.383486 153.753205 166.383486 153.753205 
C 166.383486 153.753205 166.383486 153.753205 166.383486 153.753205 
C 166.383486 153.753205 166.383486 153.753205 166.383486 153.753205 
C 166.383486 153.753205 166.383486 153.753205 166.383486 153.753205 
L 33.996614 172.624496 
z
" style="fill: none"/>
   </g>
   <g id="PathCollection_1">
    <path d="M 43.730943 182.191352 
C 46.636097 182.191352 49.422655 181.037122 51.476909 178.982868 
C 53.531164 176.928613 54.685394 174.142055 54.685394 171.236901 
C 54.685394 168.331747 53.531164 165.545189 51.476909 163.490934 
C 49.422655 161.43668 46.636097 160.28245 43.730943 160.28245 
C 40.825788 160.28245 38.03923 161.43668 35.984976 163.490934 
C 33.930722 165.545189 32.776491 168.331747 32.776491 171.236901 
C 32.776491 174.142055 33.930722 176.928613 35.984976 178.982868 
C 38.03923 181.037122 40.825788 182.191352 43.730943 182.191352 
z
" style="fill: #3695a1; fill-opacity: 0.8"/>
    <path d="M 91.594294 264.568654 
C 98.144327 264.568654 104.42697 261.966298 109.058543 257.334725 
C 113.690116 252.703152 116.292472 246.420509 116.292472 239.870476 
C 116.292472 233.320443 113.690116 227.0378 109.058543 222.406227 
C 104.42697 217.774654 98.144327 215.172298 91.594294 215.172298 
C 85.04426 215.172298 78.761617 217.774654 74.130044 222.406227 
C 69.498471 227.0378 66.896115 233.320443 66.896115 239.870476 
C 66.896115 246.420509 69.498471 252.703152 74.130044 257.334725 
C 78.761617 261.966298 85.04426 264.568654 91.594294 264.568654 
z
" style="fill: #3695a1; fill-opacity: 0.8"/>
    <path d="M 166.277038 292.185351 
C 175.348379 292.185351 184.049404 288.581268 190.463811 282.166861 
C 196.878218 275.752454 200.4823 267.05143 200.4823 257.980088 
C 200.4823 248.908746 196.878218 240.207722 190.463811 233.793315 
C 184.049404 227.378907 175.348379 223.774825 166.277038 223.774825 
C 157.205696 223.774825 148.504672 227.378907 142.090264 233.793315 
C 135.675857 240.207722 132.071775 248.908746 132.071775 257.980088 
C 132.071775 267.05143 135.675857 275.752454 142.090264 282.166861 
C 148.504672 288.581268 157.205696 292.185351 166.277038 292.185351 
z
" style="fill: #3695a1; fill-opacity: 0.8"/>
    <path d="M 228.132284 257.242563 
C 236.64361 257.242563 244.807479 253.860977 250.825896 247.842561 
C 256.844312 241.824145 260.225897 233.660275 260.225897 225.14895 
C 260.225897 216.637624 256.844312 208.473754 250.825896 202.455338 
C 244.807479 196.436922 236.64361 193.055337 228.132284 193.055337 
C 219.620958 193.055337 211.457089 196.436922 205.438673 202.455338 
C 199.420257 208.473754 196.038671 216.637624 196.038671 225.14895 
C 196.038671 233.660275 199.420257 241.824145 205.438673 247.842561 
C 211.457089 253.860977 219.620958 257.242563 228.132284 257.242563 
z
" style="fill: #3695a1; fill-opacity: 0.8"/>
    <path d="M 250.074165 191.155717 
C 256.783331 191.155717 263.218611 188.490137 267.962708 183.74604 
C 272.706806 179.001943 275.372386 172.566663 275.372386 165.857496 
C 275.372386 159.148329 272.706806 152.713049 267.962708 147.968952 
C 263.218611 143.224855 256.783331 140.559275 250.074165 140.559275 
C 243.364998 140.559275 236.929718 143.224855 232.185621 147.968952 
C 227.441524 152.713049 224.775943 159.148329 224.775943 165.857496 
C 224.775943 172.566663 227.441524 179.001943 232.185621 183.74604 
C 236.929718 188.490137 243.364998 191.155717 250.074165 191.155717 
z
" style="fill: #3695a1; fill-opacity: 0.8"/>
    <path d="M 229.279301 133.3985 
C 234.583363 133.3985 239.670899 131.291174 243.421437 127.540636 
C 247.171975 123.790097 249.279301 118.702562 249.279301 113.3985 
C 249.279301 108.094438 247.171975 103.006903 243.421437 99.256364 
C 239.670899 95.505826 234.583363 93.3985 229.279301 93.3985 
C 223.975239 93.3985 218.887704 95.505826 215.137166 99.256364 
C 211.386627 103.006903 209.279301 108.094438 209.279301 113.3985 
C 209.279301 118.702562 211.386627 123.790097 215.137166 127.540636 
C 218.887704 131.291174 223.975239 133.3985 229.279301 133.3985 
z
" style="fill: #3695a1; fill-opacity: 0.8"/>
    <path d="M 184.707273 108.231028 
C 189.14497 108.231028 193.401507 106.467913 196.539432 103.329987 
C 199.677358 100.192062 201.440473 95.935525 201.440473 91.497828 
C 201.440473 87.060131 199.677358 82.803594 196.539432 79.665668 
C 193.401507 76.527743 189.14497 74.764627 184.707273 74.764627 
C 180.269576 74.764627 176.013039 76.527743 172.875113 79.665668 
C 169.737188 82.803594 167.974072 87.060131 167.974072 91.497828 
C 167.974072 95.935525 169.737188 100.192062 172.875113 103.329987 
C 176.013039 106.467913 180.269576 108.231028 184.707273 108.231028 
z
" style="fill: #3695a1; fill-opacity: 0.8"/>
    <path d="M 143.537276 114.14123 
C 146.31875 114.14123 148.986676 113.036139 150.953475 111.06934 
C 152.920274 109.102541 154.025365 106.434615 154.025365 103.653142 
C 154.025365 100.871668 152.920274 98.203742 150.953475 96.236943 
C 148.986676 94.270144 146.31875 93.165053 143.537276 93.165053 
C 140.755803 93.165053 138.087877 94.270144 136.121078 96.236943 
C 134.154279 98.203742 133.049188 100.871668 133.049188 103.653142 
C 133.049188 106.434615 134.154279 109.102541 136.121078 111.06934 
C 138.087877 113.036139 140.755803 114.14123 143.537276 114.14123 
z
" style="fill: #3695a1; fill-opacity: 0.8"/>
    <path d="M 125.249051 143.311254 
C 127.467899 143.311254 129.596168 142.429696 131.165131 140.860734 
C 132.734093 139.291771 133.615651 137.163502 133.615651 134.944654 
C 133.615651 132.725806 132.734093 130.597537 131.165131 129.028574 
C 129.596168 127.459612 127.467899 126.578054 125.249051 126.578054 
C 123.030203 126.578054 120.901934 127.459612 119.332971 129.028574 
C 117.764009 130.597537 116.882451 132.725806 116.882451 134.944654 
C 116.882451 137.163502 117.764009 139.291771 119.332971 140.860734 
C 120.901934 142.429696 123.030203 143.311254 125.249051 143.311254 
z
" style="fill: #3695a1; fill-opacity: 0.8"/>
    <path d="M 132.415818 173.200144 
C 134.931755 173.200144 137.344985 172.200551 139.124022 170.421515 
C 140.903058 168.642478 141.902651 166.229248 141.902651 163.713311 
C 141.902651 161.197373 140.903058 158.784143 139.124022 157.005107 
C 137.344985 155.22607 134.931755 154.226478 132.415818 154.226478 
C 129.89988 154.226478 127.48665 155.22607 125.707614 157.005107 
C 123.928577 158.784143 122.928985 161.197373 122.928985 163.713311 
C 122.928985 166.229248 123.928577 168.642478 125.707614 170.421515 
C 127.48665 172.200551 129.89988 173.200144 132.415818 173.200144 
z
" style="fill: #3695a1; fill-opacity: 0.8"/>
    <path d="M 152.555961 178.418361 
C 153.394607 178.418361 154.199017 178.085163 154.792029 177.492151 
C 155.385041 176.899139 155.718239 176.094729 155.718239 175.256083 
C 155.718239 174.417437 155.385041 173.613027 154.792029 173.020015 
C 154.199017 172.427003 153.394607 172.093805 152.555961 172.093805 
C 151.717315 172.093805 150.912905 172.427003 150.319893 173.020015 
C 149.726881 173.613027 149.393683 174.417437 149.393683 175.256083 
C 149.393683 176.094729 149.726881 176.899139 150.319893 177.492151 
C 150.912905 178.085163 151.717315 178.418361 152.555961 178.418361 
z
" style="fill: #3695a1; fill-opacity: 0.8"/>
    <path d="M 168.619544 172.488133 
C 169.45819 172.488133 170.2626 172.154936 170.855612 171.561923 
C 171.448624 170.968911 171.781822 170.164501 171.781822 169.325855 
C 171.781822 168.48721 171.448624 167.6828 170.855612 167.089787 
C 170.2626 166.496775 169.45819 166.163578 168.619544 166.163578 
C 167.780898 166.163578 166.976488 166.496775 166.383476 167.089787 
C 165.790464 167.6828 165.457266 168.48721 165.457266 169.325855 
C 165.457266 170.164501 165.790464 170.968911 166.383476 171.561923 
C 166.976488 172.154936 167.780898 172.488133 168.619544 172.488133 
z
" style="fill: #3695a1; fill-opacity: 0.8"/>
    <path d="M 170.841777 160.779338 
C 171.680422 160.779338 172.484832 160.44614 173.077845 159.853128 
C 173.670857 159.260116 174.004054 158.455706 174.004054 157.61706 
C 174.004054 156.778414 173.670857 155.974004 173.077845 155.380992 
C 172.484832 154.78798 171.680422 154.454782 170.841777 154.454782 
C 170.003131 154.454782 169.198721 154.78798 168.605709 155.380992 
C 168.012696 155.974004 167.679499 156.778414 167.679499 157.61706 
C 167.679499 158.455706 168.012696 159.260116 168.605709 159.853128 
C 169.198721 160.44614 170.003131 160.779338 170.841777 160.779338 
z
" style="fill: #3695a1; fill-opacity: 0.8"/>
   </g>
   <g id="PathCollection_2"/>
   <g id="PathCollection_3"/>
   <g id="PathCollection_4"/>
   <g id="PathCollection_5"/>
   <g id="PathCollection_6"/>
   <g id="PathCollection_7"/>
   <g id="PathCollection_8"/>
   <g id="PathCollection_9"/>
   <g id="PathCollection_10"/>
   <g id="PathCollection_11"/>
   <g id="PathCollection_12"/>
   <g id="PathCollection_13"/>
   <g id="PathCollection_14"/>
   <g id="matplotlib.axis_1">
    <g id="xtick_1">
     <g id="text_1">
      <!-- -3.00 -->
      <g transform="translate(7.2 177.359551) scale(0.1 -0.1)">
       <defs>
        <path id="DejaVuSans-2d" d="M 313 2009 
L 1997 2009 
L 1997 1497 
L 313 1497 
L 313 2009 
z
" transform="scale(0.015625)"/>
        <path id="DejaVuSans-33" d="M 2597 2516 
Q 3050 2419 3304 2112 
Q 3559 1806 3559 1356 
Q 3559 666 3084 287 
Q 2609 -91 1734 -91 
Q 1441 -91 1130 -33 
Q 819 25 488 141 
L 488 750 
Q 750 597 1062 519 
Q 1375 441 1716 441 
Q 2309 441 2620 675 
Q 2931 909 2931 1356 
Q 2931 1769 2642 2001 
Q 2353 2234 1838 2234 
L 1294 2234 
L 1294 2753 
L 1863 2753 
Q 2328 2753 2575 2939 
Q 2822 3125 2822 3475 
Q 2822 3834 2567 4026 
Q 2313 4219 1838 4219 
Q 1578 4219 1281 4162 
Q 984 4106 628 3988 
L 628 4550 
Q 988 4650 1302 4700 
Q 1616 4750 1894 4750 
Q 2613 4750 3031 4423 
Q 3450 4097 3450 3541 
Q 3450 3153 3228 2886 
Q 3006 2619 2597 2516 
z
" transform="scale(0.015625)"/>
        <path id="DejaVuSans-2e" d="M 684 794 
L 1344 794 
L 1344 0 
L 684 0 
L 684 794 
z
" transform="scale(0.015625)"/>
        <path id="DejaVuSans-30" d="M 2034 4250 
Q 1547 4250 1301 3770 
Q 1056 3291 1056 2328 
Q 1056 1369 1301 889 
Q 1547 409 2034 409 
Q 2525 409 2770 889 
Q 3016 1369 3016 2328 
Q 3016 3291 2770 3770 
Q 2525 4250 2034 4250 
z
M 2034 4750 
Q 2819 4750 3233 4129 
Q 3647 3509 3647 2328 
Q 3647 1150 3233 529 
Q 2819 -91 2034 -91 
Q 1250 -91 836 529 
Q 422 1150 422 2328 
Q 422 3509 836 4129 
Q 1250 4750 2034 4750 
z
" transform="scale(0.015625)"/>
       </defs>
       <use xlink:href="#DejaVuSans-2d"/>
       <use xlink:href="#DejaVuSans-33" x="36.083984"/>
       <use xlink:href="#DejaVuSans-2e" x="99.707031"/>
       <use xlink:href="#DejaVuSans-30" x="131.494141"/>
       <use xlink:href="#DejaVuSans-30" x="195.117188"/>
      </g>
     </g>
    </g>
    <g id="xtick_2">
     <g id="text_2">
      <!-- -2.29 -->
      <g transform="translate(56.583053 268.047929) scale(0.1 -0.1)">
       <defs>
        <path id="DejaVuSans-32" d="M 1228 531 
L 3431 531 
L 3431 0 
L 469 0 
L 469 531 
Q 828 903 1448 1529 
Q 2069 2156 2228 2338 
Q 2531 2678 2651 2914 
Q 2772 3150 2772 3378 
Q 2772 3750 2511 3984 
Q 2250 4219 1831 4219 
Q 1534 4219 1204 4116 
Q 875 4013 500 3803 
L 500 4441 
Q 881 4594 1212 4672 
Q 1544 4750 1819 4750 
Q 2544 4750 2975 4387 
Q 3406 4025 3406 3419 
Q 3406 3131 3298 2873 
Q 3191 2616 2906 2266 
Q 2828 2175 2409 1742 
Q 1991 1309 1228 531 
z
" transform="scale(0.015625)"/>
        <path id="DejaVuSans-39" d="M 703 97 
L 703 672 
Q 941 559 1184 500 
Q 1428 441 1663 441 
Q 2288 441 2617 861 
Q 2947 1281 2994 2138 
Q 2813 1869 2534 1725 
Q 2256 1581 1919 1581 
Q 1219 1581 811 2004 
Q 403 2428 403 3163 
Q 403 3881 828 4315 
Q 1253 4750 1959 4750 
Q 2769 4750 3195 4129 
Q 3622 3509 3622 2328 
Q 3622 1225 3098 567 
Q 2575 -91 1691 -91 
Q 1453 -91 1209 -44 
Q 966 3 703 97 
z
M 1959 2075 
Q 2384 2075 2632 2365 
Q 2881 2656 2881 3163 
Q 2881 3666 2632 3958 
Q 2384 4250 1959 4250 
Q 1534 4250 1286 3958 
Q 1038 3666 1038 3163 
Q 1038 2656 1286 2365 
Q 1534 2075 1959 2075 
z
" transform="scale(0.015625)"/>
       </defs>
       <use xlink:href="#DejaVuSans-2d"/>
       <use xlink:href="#DejaVuSans-32" x="36.083984"/>
       <use xlink:href="#DejaVuSans-2e" x="99.707031"/>
       <use xlink:href="#DejaVuSans-32" x="131.494141"/>
       <use xlink:href="#DejaVuSans-39" x="195.117188"/>
      </g>
     </g>
    </g>
    <g id="xtick_3">
     <g id="text_3">
      <!-- -1.57 -->
      <g transform="translate(153.295893 304.23763) scale(0.1 -0.1)">
       <defs>
        <path id="DejaVuSans-31" d="M 794 531 
L 1825 531 
L 1825 4091 
L 703 3866 
L 703 4441 
L 1819 4666 
L 2450 4666 
L 2450 531 
L 3481 531 
L 3481 0 
L 794 0 
L 794 531 
z
" transform="scale(0.015625)"/>
        <path id="DejaVuSans-35" d="M 691 4666 
L 3169 4666 
L 3169 4134 
L 1269 4134 
L 1269 2991 
Q 1406 3038 1543 3061 
Q 1681 3084 1819 3084 
Q 2600 3084 3056 2656 
Q 3513 2228 3513 1497 
Q 3513 744 3044 326 
Q 2575 -91 1722 -91 
Q 1428 -91 1123 -41 
Q 819 9 494 109 
L 494 744 
Q 775 591 1075 516 
Q 1375 441 1709 441 
Q 2250 441 2565 725 
Q 2881 1009 2881 1497 
Q 2881 1984 2565 2268 
Q 2250 2553 1709 2553 
Q 1456 2553 1204 2497 
Q 953 2441 691 2322 
L 691 4666 
z
" transform="scale(0.015625)"/>
        <path id="DejaVuSans-37" d="M 525 4666 
L 3525 4666 
L 3525 4397 
L 1831 0 
L 1172 0 
L 2766 4134 
L 525 4134 
L 525 4666 
z
" transform="scale(0.015625)"/>
       </defs>
       <use xlink:href="#DejaVuSans-2d"/>
       <use xlink:href="#DejaVuSans-31" x="36.083984"/>
       <use xlink:href="#DejaVuSans-2e" x="99.707031"/>
       <use xlink:href="#DejaVuSans-35" x="131.494141"/>
       <use xlink:href="#DejaVuSans-37" x="195.117188"/>
      </g>
     </g>
    </g>
    <g id="xtick_4">
     <g id="text_4">
      <!-- -0.86 -->
      <g transform="translate(250.082454 268.245554) scale(0.1 -0.1)">
       <defs>
        <path id="DejaVuSans-38" d="M 2034 2216 
Q 1584 2216 1326 1975 
Q 1069 1734 1069 1313 
Q 1069 891 1326 650 
Q 1584 409 2034 409 
Q 2484 409 2743 651 
Q 3003 894 3003 1313 
Q 3003 1734 2745 1975 
Q 2488 2216 2034 2216 
z
M 1403 2484 
Q 997 2584 770 2862 
Q 544 3141 544 3541 
Q 544 4100 942 4425 
Q 1341 4750 2034 4750 
Q 2731 4750 3128 4425 
Q 3525 4100 3525 3541 
Q 3525 3141 3298 2862 
Q 3072 2584 2669 2484 
Q 3125 2378 3379 2068 
Q 3634 1759 3634 1313 
Q 3634 634 3220 271 
Q 2806 -91 2034 -91 
Q 1263 -91 848 271 
Q 434 634 434 1313 
Q 434 1759 690 2068 
Q 947 2378 1403 2484 
z
M 1172 3481 
Q 1172 3119 1398 2916 
Q 1625 2713 2034 2713 
Q 2441 2713 2670 2916 
Q 2900 3119 2900 3481 
Q 2900 3844 2670 4047 
Q 2441 4250 2034 4250 
Q 1625 4250 1398 4047 
Q 1172 3844 1172 3481 
z
" transform="scale(0.015625)"/>
        <path id="DejaVuSans-36" d="M 2113 2584 
Q 1688 2584 1439 2293 
Q 1191 2003 1191 1497 
Q 1191 994 1439 701 
Q 1688 409 2113 409 
Q 2538 409 2786 701 
Q 3034 994 3034 1497 
Q 3034 2003 2786 2293 
Q 2538 2584 2113 2584 
z
M 3366 4563 
L 3366 3988 
Q 3128 4100 2886 4159 
Q 2644 4219 2406 4219 
Q 1781 4219 1451 3797 
Q 1122 3375 1075 2522 
Q 1259 2794 1537 2939 
Q 1816 3084 2150 3084 
Q 2853 3084 3261 2657 
Q 3669 2231 3669 1497 
Q 3669 778 3244 343 
Q 2819 -91 2113 -91 
Q 1303 -91 875 529 
Q 447 1150 447 2328 
Q 447 3434 972 4092 
Q 1497 4750 2381 4750 
Q 2619 4750 2861 4703 
Q 3103 4656 3366 4563 
z
" transform="scale(0.015625)"/>
       </defs>
       <use xlink:href="#DejaVuSans-2d"/>
       <use xlink:href="#DejaVuSans-30" x="36.083984"/>
       <use xlink:href="#DejaVuSans-2e" x="99.707031"/>
       <use xlink:href="#DejaVuSans-38" x="131.494141"/>
       <use xlink:href="#DejaVuSans-36" x="195.117188"/>
      </g>
     </g>
    </g>
    <g id="xtick_5">
     <g id="text_5">
      <!-- -0.14 -->
      <g transform="translate(299.650647 177.658236) scale(0.1 -0.1)">
       <defs>
        <path id="DejaVuSans-34" d="M 2419 4116 
L 825 1625 
L 2419 1625 
L 2419 4116 
z
M 2253 4666 
L 3047 4666 
L 3047 1625 
L 3713 1625 
L 3713 1100 
L 3047 1100 
L 3047 0 
L 2419 0 
L 2419 1100 
L 313 1100 
L 313 1709 
L 2253 4666 
z
" transform="scale(0.015625)"/>
       </defs>
       <use xlink:href="#DejaVuSans-2d"/>
       <use xlink:href="#DejaVuSans-30" x="36.083984"/>
       <use xlink:href="#DejaVuSans-2e" x="99.707031"/>
       <use xlink:href="#DejaVuSans-31" x="131.494141"/>
       <use xlink:href="#DejaVuSans-34" x="195.117188"/>
      </g>
     </g>
    </g>
    <g id="xtick_6">
     <g id="text_6">
      <!-- 0.57 -->
      <g transform="translate(279.584248 76.738676) scale(0.1 -0.1)">
       <use xlink:href="#DejaVuSans-30"/>
       <use xlink:href="#DejaVuSans-2e" x="63.623047"/>
       <use xlink:href="#DejaVuSans-35" x="95.410156"/>
       <use xlink:href="#DejaVuSans-37" x="159.033203"/>
      </g>
     </g>
    </g>
    <g id="xtick_7">
     <g id="text_7">
      <!-- 1.28 -->
      <g transform="translate(196.961765 14.798437) scale(0.1 -0.1)">
       <use xlink:href="#DejaVuSans-31"/>
       <use xlink:href="#DejaVuSans-2e" x="63.623047"/>
       <use xlink:href="#DejaVuSans-32" x="95.410156"/>
       <use xlink:href="#DejaVuSans-38" x="159.033203"/>
      </g>
     </g>
    </g>
    <g id="xtick_8">
     <g id="text_8">
      <!-- 2.00 -->
      <g transform="translate(93.958306 22.102912) scale(0.1 -0.1)">
       <use xlink:href="#DejaVuSans-32"/>
       <use xlink:href="#DejaVuSans-2e" x="63.623047"/>
       <use xlink:href="#DejaVuSans-30" x="95.410156"/>
       <use xlink:href="#DejaVuSans-30" x="159.033203"/>
      </g>
     </g>
    </g>
    <g id="xtick_9">
     <g id="text_9">
      <!-- 2.71 -->
      <g transform="translate(20.903675 95.082969) scale(0.1 -0.1)">
       <use xlink:href="#DejaVuSans-32"/>
       <use xlink:href="#DejaVuSans-2e" x="63.623047"/>
       <use xlink:href="#DejaVuSans-37" x="95.410156"/>
       <use xlink:href="#DejaVuSans-31" x="159.033203"/>
      </g>
     </g>
    </g>
    <g id="xtick_10">
     <g id="text_10">
      <!-- 3.43 -->
      <g transform="translate(13.494005 198.078914) scale(0.1 -0.1)">
       <use xlink:href="#DejaVuSans-33"/>
       <use xlink:href="#DejaVuSans-2e" x="63.623047"/>
       <use xlink:href="#DejaVuSans-34" x="95.410156"/>
       <use xlink:href="#DejaVuSans-33" x="159.033203"/>
      </g>
     </g>
    </g>
    <g id="xtick_11">
     <g id="text_11">
      <!-- 4.14 -->
      <g transform="translate(75.349828 280.764614) scale(0.1 -0.1)">
       <use xlink:href="#DejaVuSans-34"/>
       <use xlink:href="#DejaVuSans-2e" x="63.623047"/>
       <use xlink:href="#DejaVuSans-31" x="95.410156"/>
       <use xlink:href="#DejaVuSans-34" x="159.033203"/>
      </g>
     </g>
    </g>
    <g id="xtick_12">
     <g id="text_12">
      <!-- 4.86 -->
      <g transform="translate(176.246999 302.73798) scale(0.1 -0.1)">
       <use xlink:href="#DejaVuSans-34"/>
       <use xlink:href="#DejaVuSans-2e" x="63.623047"/>
       <use xlink:href="#DejaVuSans-38" x="95.410156"/>
       <use xlink:href="#DejaVuSans-36" x="159.033203"/>
      </g>
     </g>
    </g>
    <g id="xtick_13">
     <g id="text_13">
      <!-- 5.57 -->
      <g transform="translate(266.884894 253.26233) scale(0.1 -0.1)">
       <use xlink:href="#DejaVuSans-35"/>
       <use xlink:href="#DejaVuSans-2e" x="63.623047"/>
       <use xlink:href="#DejaVuSans-35" x="95.410156"/>
       <use xlink:href="#DejaVuSans-37" x="159.033203"/>
      </g>
     </g>
    </g>
   </g>
   <g id="matplotlib.axis_2"/>
   <g id="line2d_1">
    <path d="M 43.730943 171.236901 
L 91.594294 239.870476 
L 166.277038 257.980088 
L 228.132284 225.14895 
L 250.074165 165.857496 
L 229.279301 113.3985 
L 184.707273 91.497828 
L 143.537276 103.653142 
L 125.249051 134.944654 
L 132.415818 163.713311 
L 152.555961 175.256083 
L 168.619544 169.325855 
L 170.841777 157.61706 
" style="fill: none; stroke: #000000; stroke-width: 0.5; stroke-linecap: square"/>
   </g>
   <g id="patch_3">
    <path d="M 33.996614 172.624496 
C 38.768994 206.103948 56.068099 236.557639 82.380889 257.801142 
C 108.693678 279.044645 142.109657 289.535531 175.842828 287.143349 
C 209.575998 284.751166 241.177093 269.649605 264.228674 244.905435 
C 287.280254 220.161265 300.108614 187.571089 300.108614 153.753205 
" style="fill: none; stroke: #000000; stroke-width: 0.8; stroke-linejoin: miter; stroke-linecap: square"/>
   </g>
   <g id="patch_4">
    <path d="M 166.383486 153.753205 
L 33.996614 172.624496 
" style="fill: none; stroke: #000000; stroke-width: 0.8; stroke-linejoin: miter; stroke-linecap: square"/>
   </g>
   <g id="patch_5">
    <path d="M 166.383486 153.753205 
L 300.108614 153.753205 
" style="fill: none; stroke: #000000; stroke-width: 0.8; stroke-linejoin: miter; stroke-linecap: square"/>
   </g>
   <g id="text_14">
    <!-- 1 -->
    <g transform="translate(40.549693 173.996276) scale(0.1 -0.1)">
     <use xlink:href="#DejaVuSans-31"/>
    </g>
   </g>
   <g id="text_15">
    <!-- 2 -->
    <g transform="translate(88.413044 242.629851) scale(0.1 -0.1)">
     <use xlink:href="#DejaVuSans-32"/>
    </g>
   </g>
   <g id="text_16">
    <!-- 3 -->
    <g transform="translate(163.095788 260.739463) scale(0.1 -0.1)">
     <use xlink:href="#DejaVuSans-33"/>
    </g>
   </g>
   <g id="text_17">
    <!-- 4 -->
    <g transform="translate(224.951034 227.908325) scale(0.1 -0.1)">
     <use xlink:href="#DejaVuSans-34"/>
    </g>
   </g>
   <g id="text_18">
    <!-- 5 -->
    <g transform="translate(246.892915 168.616871) scale(0.1 -0.1)">
     <use xlink:href="#DejaVuSans-35"/>
    </g>
   </g>
   <g id="text_19">
    <!-- 6 -->
    <g transform="translate(226.098051 116.157875) scale(0.1 -0.1)">
     <use xlink:href="#DejaVuSans-36"/>
    </g>
   </g>
   <g id="text_20">
    <!-- 7 -->
    <g transform="translate(181.526023 94.257203) scale(0.1 -0.1)">
     <use xlink:href="#DejaVuSans-37"/>
    </g>
   </g>
   <g id="text_21">
    <!-- 8 -->
    <g transform="translate(140.356026 106.412517) scale(0.1 -0.1)">
     <use xlink:href="#DejaVuSans-38"/>
    </g>
   </g>
   <g id="text_22">
    <!-- 9 -->
    <g transform="translate(122.067801 137.704029) scale(0.1 -0.1)">
     <use xlink:href="#DejaVuSans-39"/>
    </g>
   </g>
   <g id="text_23">
    <!-- 10 -->
    <g transform="translate(126.053318 166.472686) scale(0.1 -0.1)">
     <use xlink:href="#DejaVuSans-31"/>
     <use xlink:href="#DejaVuSans-30" x="63.623047"/>
    </g>
   </g>
   <g id="text_24">
    <!-- 11 -->
    <g transform="translate(146.193461 178.015458) scale(0.1 -0.1)">
     <use xlink:href="#DejaVuSans-31"/>
     <use xlink:href="#DejaVuSans-31" x="63.623047"/>
    </g>
   </g>
   <g id="text_25">
    <!-- 12 -->
    <g transform="translate(162.257044 172.08523) scale(0.1 -0.1)">
     <use xlink:href="#DejaVuSans-31"/>
     <use xlink:href="#DejaVuSans-32" x="63.623047"/>
    </g>
   </g>
   <g id="text_26">
    <!-- 13 -->
    <g transform="translate(164.479277 160.376435) scale(0.1 -0.1)">
     <use xlink:href="#DejaVuSans-31"/>
     <use xlink:href="#DejaVuSans-33" x="63.623047"/>
    </g>
   </g>
   <g id="text_27">
    <!-- Mean: 4.24 -->
    <g transform="translate(350.494039 109.492406) scale(0.1 -0.1)">
     <defs>
      <path id="DejaVuSans-4d" d="M 628 4666 
L 1569 4666 
L 2759 1491 
L 3956 4666 
L 4897 4666 
L 4897 0 
L 4281 0 
L 4281 4097 
L 3078 897 
L 2444 897 
L 1241 4097 
L 1241 0 
L 628 0 
L 628 4666 
z
" transform="scale(0.015625)"/>
      <path id="DejaVuSans-65" d="M 3597 1894 
L 3597 1613 
L 953 1613 
Q 991 1019 1311 708 
Q 1631 397 2203 397 
Q 2534 397 2845 478 
Q 3156 559 3463 722 
L 3463 178 
Q 3153 47 2828 -22 
Q 2503 -91 2169 -91 
Q 1331 -91 842 396 
Q 353 884 353 1716 
Q 353 2575 817 3079 
Q 1281 3584 2069 3584 
Q 2775 3584 3186 3129 
Q 3597 2675 3597 1894 
z
M 3022 2063 
Q 3016 2534 2758 2815 
Q 2500 3097 2075 3097 
Q 1594 3097 1305 2825 
Q 1016 2553 972 2059 
L 3022 2063 
z
" transform="scale(0.015625)"/>
      <path id="DejaVuSans-61" d="M 2194 1759 
Q 1497 1759 1228 1600 
Q 959 1441 959 1056 
Q 959 750 1161 570 
Q 1363 391 1709 391 
Q 2188 391 2477 730 
Q 2766 1069 2766 1631 
L 2766 1759 
L 2194 1759 
z
M 3341 1997 
L 3341 0 
L 2766 0 
L 2766 531 
Q 2569 213 2275 61 
Q 1981 -91 1556 -91 
Q 1019 -91 701 211 
Q 384 513 384 1019 
Q 384 1609 779 1909 
Q 1175 2209 1959 2209 
L 2766 2209 
L 2766 2266 
Q 2766 2663 2505 2880 
Q 2244 3097 1772 3097 
Q 1472 3097 1187 3025 
Q 903 2953 641 2809 
L 641 3341 
Q 956 3463 1253 3523 
Q 1550 3584 1831 3584 
Q 2591 3584 2966 3190 
Q 3341 2797 3341 1997 
z
" transform="scale(0.015625)"/>
      <path id="DejaVuSans-6e" d="M 3513 2113 
L 3513 0 
L 2938 0 
L 2938 2094 
Q 2938 2591 2744 2837 
Q 2550 3084 2163 3084 
Q 1697 3084 1428 2787 
Q 1159 2491 1159 1978 
L 1159 0 
L 581 0 
L 581 3500 
L 1159 3500 
L 1159 2956 
Q 1366 3272 1645 3428 
Q 1925 3584 2291 3584 
Q 2894 3584 3203 3211 
Q 3513 2838 3513 2113 
z
" transform="scale(0.015625)"/>
      <path id="DejaVuSans-3a" d="M 750 794 
L 1409 794 
L 1409 0 
L 750 0 
L 750 794 
z
M 750 3309 
L 1409 3309 
L 1409 2516 
L 750 2516 
L 750 3309 
z
" transform="scale(0.015625)"/>
      <path id="DejaVuSans-20" transform="scale(0.015625)"/>
     </defs>
     <use xlink:href="#DejaVuSans-4d"/>
     <use xlink:href="#DejaVuSans-65" x="86.279297"/>
     <use xlink:href="#DejaVuSans-61" x="147.802734"/>
     <use xlink:href="#DejaVuSans-6e" x="209.082031"/>
     <use xlink:href="#DejaVuSans-3a" x="272.460938"/>
     <use xlink:href="#DejaVuSans-20" x="306.152344"/>
     <use xlink:href="#DejaVuSans-34" x="337.939453"/>
     <use xlink:href="#DejaVuSans-2e" x="401.5625"/>
     <use xlink:href="#DejaVuSans-32" x="433.349609"/>
     <use xlink:href="#DejaVuSans-34" x="496.972656"/>
    </g>
   </g>
   <g id="text_28">
    <!-- SD: 1.98 -->
    <g transform="translate(363.692476 122.798006) scale(0.1 -0.1)">
     <defs>
      <path id="DejaVuSans-53" d="M 3425 4513 
L 3425 3897 
Q 3066 4069 2747 4153 
Q 2428 4238 2131 4238 
Q 1616 4238 1336 4038 
Q 1056 3838 1056 3469 
Q 1056 3159 1242 3001 
Q 1428 2844 1947 2747 
L 2328 2669 
Q 3034 2534 3370 2195 
Q 3706 1856 3706 1288 
Q 3706 609 3251 259 
Q 2797 -91 1919 -91 
Q 1588 -91 1214 -16 
Q 841 59 441 206 
L 441 856 
Q 825 641 1194 531 
Q 1563 422 1919 422 
Q 2459 422 2753 634 
Q 3047 847 3047 1241 
Q 3047 1584 2836 1778 
Q 2625 1972 2144 2069 
L 1759 2144 
Q 1053 2284 737 2584 
Q 422 2884 422 3419 
Q 422 4038 858 4394 
Q 1294 4750 2059 4750 
Q 2388 4750 2728 4690 
Q 3069 4631 3425 4513 
z
" transform="scale(0.015625)"/>
      <path id="DejaVuSans-44" d="M 1259 4147 
L 1259 519 
L 2022 519 
Q 2988 519 3436 956 
Q 3884 1394 3884 2338 
Q 3884 3275 3436 3711 
Q 2988 4147 2022 4147 
L 1259 4147 
z
M 628 4666 
L 1925 4666 
Q 3281 4666 3915 4102 
Q 4550 3538 4550 2338 
Q 4550 1131 3912 565 
Q 3275 0 1925 0 
L 628 0 
L 628 4666 
z
" transform="scale(0.015625)"/>
     </defs>
     <use xlink:href="#DejaVuSans-53"/>
     <use xlink:href="#DejaVuSans-44" x="63.476562"/>
     <use xlink:href="#DejaVuSans-3a" x="140.478516"/>
     <use xlink:href="#DejaVuSans-20" x="174.169922"/>
     <use xlink:href="#DejaVuSans-31" x="205.957031"/>
     <use xlink:href="#DejaVuSans-2e" x="269.580078"/>
     <use xlink:href="#DejaVuSans-39" x="301.367188"/>
     <use xlink:href="#DejaVuSans-38" x="364.990234"/>
    </g>
   </g>
   <g id="text_29">
    <!-- Median: 4.00 -->
    <g transform="translate(341.367476 136.103606) scale(0.1 -0.1)">
     <defs>
      <path id="DejaVuSans-64" d="M 2906 2969 
L 2906 4863 
L 3481 4863 
L 3481 0 
L 2906 0 
L 2906 525 
Q 2725 213 2448 61 
Q 2172 -91 1784 -91 
Q 1150 -91 751 415 
Q 353 922 353 1747 
Q 353 2572 751 3078 
Q 1150 3584 1784 3584 
Q 2172 3584 2448 3432 
Q 2725 3281 2906 2969 
z
M 947 1747 
Q 947 1113 1208 752 
Q 1469 391 1925 391 
Q 2381 391 2643 752 
Q 2906 1113 2906 1747 
Q 2906 2381 2643 2742 
Q 2381 3103 1925 3103 
Q 1469 3103 1208 2742 
Q 947 2381 947 1747 
z
" transform="scale(0.015625)"/>
      <path id="DejaVuSans-69" d="M 603 3500 
L 1178 3500 
L 1178 0 
L 603 0 
L 603 3500 
z
M 603 4863 
L 1178 4863 
L 1178 4134 
L 603 4134 
L 603 4863 
z
" transform="scale(0.015625)"/>
     </defs>
     <use xlink:href="#DejaVuSans-4d"/>
     <use xlink:href="#DejaVuSans-65" x="86.279297"/>
     <use xlink:href="#DejaVuSans-64" x="147.802734"/>
     <use xlink:href="#DejaVuSans-69" x="211.279297"/>
     <use xlink:href="#DejaVuSans-61" x="239.0625"/>
     <use xlink:href="#DejaVuSans-6e" x="300.341797"/>
     <use xlink:href="#DejaVuSans-3a" x="363.720703"/>
     <use xlink:href="#DejaVuSans-20" x="397.412109"/>
     <use xlink:href="#DejaVuSans-34" x="429.199219"/>
     <use xlink:href="#DejaVuSans-2e" x="492.822266"/>
     <use xlink:href="#DejaVuSans-30" x="524.609375"/>
     <use xlink:href="#DejaVuSans-30" x="588.232422"/>
    </g>
   </g>
   <g id="text_30">
    <!-- Mode: 3.00 -->
    <g transform="translate(350.492476 149.409206) scale(0.1 -0.1)">
     <defs>
      <path id="DejaVuSans-6f" d="M 1959 3097 
Q 1497 3097 1228 2736 
Q 959 2375 959 1747 
Q 959 1119 1226 758 
Q 1494 397 1959 397 
Q 2419 397 2687 759 
Q 2956 1122 2956 1747 
Q 2956 2369 2687 2733 
Q 2419 3097 1959 3097 
z
M 1959 3584 
Q 2709 3584 3137 3096 
Q 3566 2609 3566 1747 
Q 3566 888 3137 398 
Q 2709 -91 1959 -91 
Q 1206 -91 779 398 
Q 353 888 353 1747 
Q 353 2609 779 3096 
Q 1206 3584 1959 3584 
z
" transform="scale(0.015625)"/>
     </defs>
     <use xlink:href="#DejaVuSans-4d"/>
     <use xlink:href="#DejaVuSans-6f" x="86.279297"/>
     <use xlink:href="#DejaVuSans-64" x="147.460938"/>
     <use xlink:href="#DejaVuSans-65" x="210.9375"/>
     <use xlink:href="#DejaVuSans-3a" x="272.460938"/>
     <use xlink:href="#DejaVuSans-20" x="306.152344"/>
     <use xlink:href="#DejaVuSans-33" x="337.939453"/>
     <use xlink:href="#DejaVuSans-2e" x="401.5625"/>
     <use xlink:href="#DejaVuSans-30" x="433.349609"/>
     <use xlink:href="#DejaVuSans-30" x="496.972656"/>
    </g>
   </g>
   <g id="text_31">
    <!-- Distribution of repertoire sizes -->
    <g transform="translate(76.082301 55.977168) scale(0.12 -0.12)">
     <defs>
      <path id="DejaVuSans-73" d="M 2834 3397 
L 2834 2853 
Q 2591 2978 2328 3040 
Q 2066 3103 1784 3103 
Q 1356 3103 1142 2972 
Q 928 2841 928 2578 
Q 928 2378 1081 2264 
Q 1234 2150 1697 2047 
L 1894 2003 
Q 2506 1872 2764 1633 
Q 3022 1394 3022 966 
Q 3022 478 2636 193 
Q 2250 -91 1575 -91 
Q 1294 -91 989 -36 
Q 684 19 347 128 
L 347 722 
Q 666 556 975 473 
Q 1284 391 1588 391 
Q 1994 391 2212 530 
Q 2431 669 2431 922 
Q 2431 1156 2273 1281 
Q 2116 1406 1581 1522 
L 1381 1569 
Q 847 1681 609 1914 
Q 372 2147 372 2553 
Q 372 3047 722 3315 
Q 1072 3584 1716 3584 
Q 2034 3584 2315 3537 
Q 2597 3491 2834 3397 
z
" transform="scale(0.015625)"/>
      <path id="DejaVuSans-74" d="M 1172 4494 
L 1172 3500 
L 2356 3500 
L 2356 3053 
L 1172 3053 
L 1172 1153 
Q 1172 725 1289 603 
Q 1406 481 1766 481 
L 2356 481 
L 2356 0 
L 1766 0 
Q 1100 0 847 248 
Q 594 497 594 1153 
L 594 3053 
L 172 3053 
L 172 3500 
L 594 3500 
L 594 4494 
L 1172 4494 
z
" transform="scale(0.015625)"/>
      <path id="DejaVuSans-72" d="M 2631 2963 
Q 2534 3019 2420 3045 
Q 2306 3072 2169 3072 
Q 1681 3072 1420 2755 
Q 1159 2438 1159 1844 
L 1159 0 
L 581 0 
L 581 3500 
L 1159 3500 
L 1159 2956 
Q 1341 3275 1631 3429 
Q 1922 3584 2338 3584 
Q 2397 3584 2469 3576 
Q 2541 3569 2628 3553 
L 2631 2963 
z
" transform="scale(0.015625)"/>
      <path id="DejaVuSans-62" d="M 3116 1747 
Q 3116 2381 2855 2742 
Q 2594 3103 2138 3103 
Q 1681 3103 1420 2742 
Q 1159 2381 1159 1747 
Q 1159 1113 1420 752 
Q 1681 391 2138 391 
Q 2594 391 2855 752 
Q 3116 1113 3116 1747 
z
M 1159 2969 
Q 1341 3281 1617 3432 
Q 1894 3584 2278 3584 
Q 2916 3584 3314 3078 
Q 3713 2572 3713 1747 
Q 3713 922 3314 415 
Q 2916 -91 2278 -91 
Q 1894 -91 1617 61 
Q 1341 213 1159 525 
L 1159 0 
L 581 0 
L 581 4863 
L 1159 4863 
L 1159 2969 
z
" transform="scale(0.015625)"/>
      <path id="DejaVuSans-75" d="M 544 1381 
L 544 3500 
L 1119 3500 
L 1119 1403 
Q 1119 906 1312 657 
Q 1506 409 1894 409 
Q 2359 409 2629 706 
Q 2900 1003 2900 1516 
L 2900 3500 
L 3475 3500 
L 3475 0 
L 2900 0 
L 2900 538 
Q 2691 219 2414 64 
Q 2138 -91 1772 -91 
Q 1169 -91 856 284 
Q 544 659 544 1381 
z
M 1991 3584 
L 1991 3584 
z
" transform="scale(0.015625)"/>
      <path id="DejaVuSans-66" d="M 2375 4863 
L 2375 4384 
L 1825 4384 
Q 1516 4384 1395 4259 
Q 1275 4134 1275 3809 
L 1275 3500 
L 2222 3500 
L 2222 3053 
L 1275 3053 
L 1275 0 
L 697 0 
L 697 3053 
L 147 3053 
L 147 3500 
L 697 3500 
L 697 3744 
Q 697 4328 969 4595 
Q 1241 4863 1831 4863 
L 2375 4863 
z
" transform="scale(0.015625)"/>
      <path id="DejaVuSans-70" d="M 1159 525 
L 1159 -1331 
L 581 -1331 
L 581 3500 
L 1159 3500 
L 1159 2969 
Q 1341 3281 1617 3432 
Q 1894 3584 2278 3584 
Q 2916 3584 3314 3078 
Q 3713 2572 3713 1747 
Q 3713 922 3314 415 
Q 2916 -91 2278 -91 
Q 1894 -91 1617 61 
Q 1341 213 1159 525 
z
M 3116 1747 
Q 3116 2381 2855 2742 
Q 2594 3103 2138 3103 
Q 1681 3103 1420 2742 
Q 1159 2381 1159 1747 
Q 1159 1113 1420 752 
Q 1681 391 2138 391 
Q 2594 391 2855 752 
Q 3116 1113 3116 1747 
z
" transform="scale(0.015625)"/>
      <path id="DejaVuSans-7a" d="M 353 3500 
L 3084 3500 
L 3084 2975 
L 922 459 
L 3084 459 
L 3084 0 
L 275 0 
L 275 525 
L 2438 3041 
L 353 3041 
L 353 3500 
z
" transform="scale(0.015625)"/>
     </defs>
     <use xlink:href="#DejaVuSans-44"/>
     <use xlink:href="#DejaVuSans-69" x="77.001953"/>
     <use xlink:href="#DejaVuSans-73" x="104.785156"/>
     <use xlink:href="#DejaVuSans-74" x="156.884766"/>
     <use xlink:href="#DejaVuSans-72" x="196.09375"/>
     <use xlink:href="#DejaVuSans-69" x="237.207031"/>
     <use xlink:href="#DejaVuSans-62" x="264.990234"/>
     <use xlink:href="#DejaVuSans-75" x="328.466797"/>
     <use xlink:href="#DejaVuSans-74" x="391.845703"/>
     <use xlink:href="#DejaVuSans-69" x="431.054688"/>
     <use xlink:href="#DejaVuSans-6f" x="458.837891"/>
     <use xlink:href="#DejaVuSans-6e" x="520.019531"/>
     <use xlink:href="#DejaVuSans-20" x="583.398438"/>
     <use xlink:href="#DejaVuSans-6f" x="615.185547"/>
     <use xlink:href="#DejaVuSans-66" x="676.367188"/>
     <use xlink:href="#DejaVuSans-20" x="711.572266"/>
     <use xlink:href="#DejaVuSans-72" x="743.359375"/>
     <use xlink:href="#DejaVuSans-65" x="782.222656"/>
     <use xlink:href="#DejaVuSans-70" x="843.746094"/>
     <use xlink:href="#DejaVuSans-65" x="907.222656"/>
     <use xlink:href="#DejaVuSans-72" x="968.746094"/>
     <use xlink:href="#DejaVuSans-74" x="1009.859375"/>
     <use xlink:href="#DejaVuSans-6f" x="1049.068359"/>
     <use xlink:href="#DejaVuSans-69" x="1110.25"/>
     <use xlink:href="#DejaVuSans-72" x="1138.033203"/>
     <use xlink:href="#DejaVuSans-65" x="1176.896484"/>
     <use xlink:href="#DejaVuSans-20" x="1238.419922"/>
     <use xlink:href="#DejaVuSans-73" x="1270.207031"/>
     <use xlink:href="#DejaVuSans-69" x="1322.306641"/>
     <use xlink:href="#DejaVuSans-7a" x="1350.089844"/>
     <use xlink:href="#DejaVuSans-65" x="1402.580078"/>
     <use xlink:href="#DejaVuSans-73" x="1464.103516"/>
    </g>
   </g>
   <g id="legend_1">
    <g id="text_32">
     <!-- Count (n birds) -->
     <g transform="translate(415.553414 96.495931) scale(0.1 -0.1)">
      <defs>
       <path id="DejaVuSans-43" d="M 4122 4306 
L 4122 3641 
Q 3803 3938 3442 4084 
Q 3081 4231 2675 4231 
Q 1875 4231 1450 3742 
Q 1025 3253 1025 2328 
Q 1025 1406 1450 917 
Q 1875 428 2675 428 
Q 3081 428 3442 575 
Q 3803 722 4122 1019 
L 4122 359 
Q 3791 134 3420 21 
Q 3050 -91 2638 -91 
Q 1578 -91 968 557 
Q 359 1206 359 2328 
Q 359 3453 968 4101 
Q 1578 4750 2638 4750 
Q 3056 4750 3426 4639 
Q 3797 4528 4122 4306 
z
" transform="scale(0.015625)"/>
       <path id="DejaVuSans-28" d="M 1984 4856 
Q 1566 4138 1362 3434 
Q 1159 2731 1159 2009 
Q 1159 1288 1364 580 
Q 1569 -128 1984 -844 
L 1484 -844 
Q 1016 -109 783 600 
Q 550 1309 550 2009 
Q 550 2706 781 3412 
Q 1013 4119 1484 4856 
L 1984 4856 
z
" transform="scale(0.015625)"/>
       <path id="DejaVuSans-29" d="M 513 4856 
L 1013 4856 
Q 1481 4119 1714 3412 
Q 1947 2706 1947 2009 
Q 1947 1309 1714 600 
Q 1481 -109 1013 -844 
L 513 -844 
Q 928 -128 1133 580 
Q 1338 1288 1338 2009 
Q 1338 2731 1133 3434 
Q 928 4138 513 4856 
z
" transform="scale(0.015625)"/>
      </defs>
      <use xlink:href="#DejaVuSans-43"/>
      <use xlink:href="#DejaVuSans-6f" x="69.824219"/>
      <use xlink:href="#DejaVuSans-75" x="131.005859"/>
      <use xlink:href="#DejaVuSans-6e" x="194.384766"/>
      <use xlink:href="#DejaVuSans-74" x="257.763672"/>
      <use xlink:href="#DejaVuSans-20" x="296.972656"/>
      <use xlink:href="#DejaVuSans-28" x="328.759766"/>
      <use xlink:href="#DejaVuSans-6e" x="367.773438"/>
      <use xlink:href="#DejaVuSans-20" x="431.152344"/>
      <use xlink:href="#DejaVuSans-62" x="462.939453"/>
      <use xlink:href="#DejaVuSans-69" x="526.416016"/>
      <use xlink:href="#DejaVuSans-72" x="554.199219"/>
      <use xlink:href="#DejaVuSans-64" x="593.5625"/>
      <use xlink:href="#DejaVuSans-73" x="657.039062"/>
      <use xlink:href="#DejaVuSans-29" x="709.138672"/>
     </g>
    </g>
    <g id="PathCollection_15">
     <defs>
      <path id="m4ee451f2f7" d="M 0 10.954451 
C 2.905154 10.954451 5.691712 9.800221 7.745967 7.745967 
C 9.800221 5.691712 10.954451 2.905154 10.954451 0 
C 10.954451 -2.905154 9.800221 -5.691712 7.745967 -7.745967 
C 5.691712 -9.800221 2.905154 -10.954451 0 -10.954451 
C -2.905154 -10.954451 -5.691712 -9.800221 -7.745967 -7.745967 
C -9.800221 -5.691712 -10.954451 -2.905154 -10.954451 0 
C -10.954451 2.905154 -9.800221 5.691712 -7.745967 7.745967 
C -5.691712 9.800221 -2.905154 10.954451 0 10.954451 
z
" style="stroke: #3695a1; stroke-opacity: 0.8"/>
     </defs>
     <g>
      <use xlink:href="#m4ee451f2f7" x="439.416695" y="113.549056" style="fill: #3695a1; fill-opacity: 0.8; stroke: #3695a1; stroke-opacity: 0.8"/>
     </g>
    </g>
    <g id="text_33">
     <!-- 12 -->
     <g transform="translate(457.416695 116.174056) scale(0.1 -0.1)">
      <use xlink:href="#DejaVuSans-31"/>
      <use xlink:href="#DejaVuSans-32" x="63.623047"/>
     </g>
    </g>
    <g id="PathCollection_16">
     <defs>
      <path id="m8cab0b9bb6" d="M 0 24.698178 
C 6.550033 24.698178 12.832676 22.095822 17.464249 17.464249 
C 22.095822 12.832676 24.698178 6.550033 24.698178 0 
C 24.698178 -6.550033 22.095822 -12.832676 17.464249 -17.464249 
C 12.832676 -22.095822 6.550033 -24.698178 0 -24.698178 
C -6.550033 -24.698178 -12.832676 -22.095822 -17.464249 -17.464249 
C -22.095822 -12.832676 -24.698178 -6.550033 -24.698178 0 
C -24.698178 6.550033 -22.095822 12.832676 -17.464249 17.464249 
C -12.832676 22.095822 -6.550033 24.698178 0 24.698178 
z
" style="stroke: #3695a1; stroke-opacity: 0.8"/>
     </defs>
     <g>
      <use xlink:href="#m8cab0b9bb6" x="439.416695" y="133.227181" style="fill: #3695a1; fill-opacity: 0.8; stroke: #3695a1; stroke-opacity: 0.8"/>
     </g>
    </g>
    <g id="text_34">
     <!-- 61 -->
     <g transform="translate(457.416695 135.852181) scale(0.1 -0.1)">
      <use xlink:href="#DejaVuSans-36"/>
      <use xlink:href="#DejaVuSans-31" x="63.623047"/>
     </g>
    </g>
    <g id="PathCollection_17">
     <defs>
      <path id="ma6ba0372b9" d="M 0 34.205263 
C 9.071342 34.205263 17.772366 30.60118 24.186773 24.186773 
C 30.60118 17.772366 34.205263 9.071342 34.205263 0 
C 34.205263 -9.071342 30.60118 -17.772366 24.186773 -24.186773 
C 17.772366 -30.60118 9.071342 -34.205263 0 -34.205263 
C -9.071342 -34.205263 -17.772366 -30.60118 -24.186773 -24.186773 
C -30.60118 -17.772366 -34.205263 -9.071342 -34.205263 0 
C -34.205263 9.071342 -30.60118 17.772366 -24.186773 24.186773 
C -17.772366 30.60118 -9.071342 34.205263 0 34.205263 
z
" style="stroke: #3695a1; stroke-opacity: 0.8"/>
     </defs>
     <g>
      <use xlink:href="#ma6ba0372b9" x="439.416695" y="152.905306" style="fill: #3695a1; fill-opacity: 0.8; stroke: #3695a1; stroke-opacity: 0.8"/>
     </g>
    </g>
    <g id="text_35">
     <!-- 117 -->
     <g transform="translate(457.416695 155.530306) scale(0.1 -0.1)">
      <use xlink:href="#DejaVuSans-31"/>
      <use xlink:href="#DejaVuSans-31" x="63.623047"/>
      <use xlink:href="#DejaVuSans-37" x="127.246094"/>
     </g>
    </g>
    <g id="PathCollection_18">
     <defs>
      <path id="me4fb15de02" d="M 0 32.093613 
C 8.511326 32.093613 16.675195 28.712028 22.693611 22.693611 
C 28.712028 16.675195 32.093613 8.511326 32.093613 0 
C 32.093613 -8.511326 28.712028 -16.675195 22.693611 -22.693611 
C 16.675195 -28.712028 8.511326 -32.093613 0 -32.093613 
C -8.511326 -32.093613 -16.675195 -28.712028 -22.693611 -22.693611 
C -28.712028 -16.675195 -32.093613 -8.511326 -32.093613 0 
C -32.093613 8.511326 -28.712028 16.675195 -22.693611 22.693611 
C -16.675195 28.712028 -8.511326 32.093613 0 32.093613 
z
" style="stroke: #3695a1; stroke-opacity: 0.8"/>
     </defs>
     <g>
      <use xlink:href="#me4fb15de02" x="439.416695" y="172.583431" style="fill: #3695a1; fill-opacity: 0.8; stroke: #3695a1; stroke-opacity: 0.8"/>
     </g>
    </g>
    <g id="text_36">
     <!-- 103 -->
     <g transform="translate(457.416695 175.208431) scale(0.1 -0.1)">
      <use xlink:href="#DejaVuSans-31"/>
      <use xlink:href="#DejaVuSans-30" x="63.623047"/>
      <use xlink:href="#DejaVuSans-33" x="127.246094"/>
     </g>
    </g>
    <g id="PathCollection_19">
     <defs>
      <path id="m1c20c8a104" d="M 0 25.298221 
C 6.709167 25.298221 13.144447 22.632641 17.888544 17.888544 
C 22.632641 13.144447 25.298221 6.709167 25.298221 0 
C 25.298221 -6.709167 22.632641 -13.144447 17.888544 -17.888544 
C 13.144447 -22.632641 6.709167 -25.298221 0 -25.298221 
C -6.709167 -25.298221 -13.144447 -22.632641 -17.888544 -17.888544 
C -22.632641 -13.144447 -25.298221 -6.709167 -25.298221 0 
C -25.298221 6.709167 -22.632641 13.144447 -17.888544 17.888544 
C -13.144447 22.632641 -6.709167 25.298221 0 25.298221 
z
" style="stroke: #3695a1; stroke-opacity: 0.8"/>
     </defs>
     <g>
      <use xlink:href="#m1c20c8a104" x="439.416695" y="192.261556" style="fill: #3695a1; fill-opacity: 0.8; stroke: #3695a1; stroke-opacity: 0.8"/>
     </g>
    </g>
    <g id="text_37">
     <!-- 64 -->
     <g transform="translate(457.416695 194.886556) scale(0.1 -0.1)">
      <use xlink:href="#DejaVuSans-36"/>
      <use xlink:href="#DejaVuSans-34" x="63.623047"/>
     </g>
    </g>
    <g id="PathCollection_20">
     <defs>
      <path id="mb50d91ecaa" d="M 0 20 
C 5.304062 20 10.391597 17.892674 14.142136 14.142136 
C 17.892674 10.391597 20 5.304062 20 0 
C 20 -5.304062 17.892674 -10.391597 14.142136 -14.142136 
C 10.391597 -17.892674 5.304062 -20 0 -20 
C -5.304062 -20 -10.391597 -17.892674 -14.142136 -14.142136 
C -17.892674 -10.391597 -20 -5.304062 -20 0 
C -20 5.304062 -17.892674 10.391597 -14.142136 14.142136 
C -10.391597 17.892674 -5.304062 20 0 20 
z
" style="stroke: #3695a1; stroke-opacity: 0.8"/>
     </defs>
     <g>
      <use xlink:href="#mb50d91ecaa" x="439.416695" y="211.939681" style="fill: #3695a1; fill-opacity: 0.8; stroke: #3695a1; stroke-opacity: 0.8"/>
     </g>
    </g>
    <g id="text_38">
     <!-- 40 -->
     <g transform="translate(457.416695 214.564681) scale(0.1 -0.1)">
      <use xlink:href="#DejaVuSans-34"/>
      <use xlink:href="#DejaVuSans-30" x="63.623047"/>
     </g>
    </g>
    <g id="PathCollection_21">
     <defs>
      <path id="me2335acbf4" d="M 0 16.733201 
C 4.437697 16.733201 8.694234 14.970085 11.83216 11.83216 
C 14.970085 8.694234 16.733201 4.437697 16.733201 0 
C 16.733201 -4.437697 14.970085 -8.694234 11.83216 -11.83216 
C 8.694234 -14.970085 4.437697 -16.733201 0 -16.733201 
C -4.437697 -16.733201 -8.694234 -14.970085 -11.83216 -11.83216 
C -14.970085 -8.694234 -16.733201 -4.437697 -16.733201 0 
C -16.733201 4.437697 -14.970085 8.694234 -11.83216 11.83216 
C -8.694234 14.970085 -4.437697 16.733201 0 16.733201 
z
" style="stroke: #3695a1; stroke-opacity: 0.8"/>
     </defs>
     <g>
      <use xlink:href="#me2335acbf4" x="439.416695" y="231.617806" style="fill: #3695a1; fill-opacity: 0.8; stroke: #3695a1; stroke-opacity: 0.8"/>
     </g>
    </g>
    <g id="text_39">
     <!-- 28 -->
     <g transform="translate(457.416695 234.242806) scale(0.1 -0.1)">
      <use xlink:href="#DejaVuSans-32"/>
      <use xlink:href="#DejaVuSans-38" x="63.623047"/>
     </g>
    </g>
    <g id="PathCollection_22">
     <defs>
      <path id="m5542812626" d="M 0 10.488088 
C 2.781474 10.488088 5.4494 9.382997 7.416198 7.416198 
C 9.382997 5.4494 10.488088 2.781474 10.488088 0 
C 10.488088 -2.781474 9.382997 -5.4494 7.416198 -7.416198 
C 5.4494 -9.382997 2.781474 -10.488088 0 -10.488088 
C -2.781474 -10.488088 -5.4494 -9.382997 -7.416198 -7.416198 
C -9.382997 -5.4494 -10.488088 -2.781474 -10.488088 0 
C -10.488088 2.781474 -9.382997 5.4494 -7.416198 7.416198 
C -5.4494 9.382997 -2.781474 10.488088 0 10.488088 
z
" style="stroke: #3695a1; stroke-opacity: 0.8"/>
     </defs>
     <g>
      <use xlink:href="#m5542812626" x="439.416695" y="251.295931" style="fill: #3695a1; fill-opacity: 0.8; stroke: #3695a1; stroke-opacity: 0.8"/>
     </g>
    </g>
    <g id="text_40">
     <!-- 11 -->
     <g transform="translate(457.416695 253.920931) scale(0.1 -0.1)">
      <use xlink:href="#DejaVuSans-31"/>
      <use xlink:href="#DejaVuSans-31" x="63.623047"/>
     </g>
    </g>
    <g id="PathCollection_23">
     <defs>
      <path id="m8ac6aa7c42" d="M 0 8.3666 
C 2.218848 8.3666 4.347117 7.485042 5.91608 5.91608 
C 7.485042 4.347117 8.3666 2.218848 8.3666 0 
C 8.3666 -2.218848 7.485042 -4.347117 5.91608 -5.91608 
C 4.347117 -7.485042 2.218848 -8.3666 0 -8.3666 
C -2.218848 -8.3666 -4.347117 -7.485042 -5.91608 -5.91608 
C -7.485042 -4.347117 -8.3666 -2.218848 -8.3666 0 
C -8.3666 2.218848 -7.485042 4.347117 -5.91608 5.91608 
C -4.347117 7.485042 -2.218848 8.3666 0 8.3666 
z
" style="stroke: #3695a1; stroke-opacity: 0.8"/>
     </defs>
     <g>
      <use xlink:href="#m8ac6aa7c42" x="439.416695" y="270.974056" style="fill: #3695a1; fill-opacity: 0.8; stroke: #3695a1; stroke-opacity: 0.8"/>
     </g>
    </g>
    <g id="text_41">
     <!-- 7 -->
     <g transform="translate(457.416695 273.599056) scale(0.1 -0.1)">
      <use xlink:href="#DejaVuSans-37"/>
     </g>
    </g>
    <g id="PathCollection_24">
     <defs>
      <path id="m23e8a7e0b4" d="M 0 9.486833 
C 2.515938 9.486833 4.929167 8.48724 6.708204 6.708204 
C 8.48724 4.929167 9.486833 2.515938 9.486833 0 
C 9.486833 -2.515938 8.48724 -4.929167 6.708204 -6.708204 
C 4.929167 -8.48724 2.515938 -9.486833 0 -9.486833 
C -2.515938 -9.486833 -4.929167 -8.48724 -6.708204 -6.708204 
C -8.48724 -4.929167 -9.486833 -2.515938 -9.486833 0 
C -9.486833 2.515938 -8.48724 4.929167 -6.708204 6.708204 
C -4.929167 8.48724 -2.515938 9.486833 0 9.486833 
z
" style="stroke: #3695a1; stroke-opacity: 0.8"/>
     </defs>
     <g>
      <use xlink:href="#m23e8a7e0b4" x="439.416695" y="290.652181" style="fill: #3695a1; fill-opacity: 0.8; stroke: #3695a1; stroke-opacity: 0.8"/>
     </g>
    </g>
    <g id="text_42">
     <!-- 9 -->
     <g transform="translate(457.416695 293.277181) scale(0.1 -0.1)">
      <use xlink:href="#DejaVuSans-39"/>
     </g>
    </g>
    <g id="PathCollection_25">
     <defs>
      <path id="m5f20cf469d" d="M 0 3.162278 
C 0.838646 3.162278 1.643056 2.82908 2.236068 2.236068 
C 2.82908 1.643056 3.162278 0.838646 3.162278 0 
C 3.162278 -0.838646 2.82908 -1.643056 2.236068 -2.236068 
C 1.643056 -2.82908 0.838646 -3.162278 0 -3.162278 
C -0.838646 -3.162278 -1.643056 -2.82908 -2.236068 -2.236068 
C -2.82908 -1.643056 -3.162278 -0.838646 -3.162278 0 
C -3.162278 0.838646 -2.82908 1.643056 -2.236068 2.236068 
C -1.643056 2.82908 -0.838646 3.162278 0 3.162278 
z
" style="stroke: #3695a1; stroke-opacity: 0.8"/>
     </defs>
     <g>
      <use xlink:href="#m5f20cf469d" x="439.416695" y="310.330306" style="fill: #3695a1; fill-opacity: 0.8; stroke: #3695a1; stroke-opacity: 0.8"/>
     </g>
    </g>
    <g id="text_43">
     <!-- 1 -->
     <g transform="translate(457.416695 312.955306) scale(0.1 -0.1)">
      <use xlink:href="#DejaVuSans-31"/>
     </g>
    </g>
    <g id="PathCollection_26">
     <g>
      <use xlink:href="#m5f20cf469d" x="439.416695" y="330.008431" style="fill: #3695a1; fill-opacity: 0.8; stroke: #3695a1; stroke-opacity: 0.8"/>
     </g>
    </g>
    <g id="text_44">
     <!-- 1 -->
     <g transform="translate(457.416695 332.633431) scale(0.1 -0.1)">
      <use xlink:href="#DejaVuSans-31"/>
     </g>
    </g>
    <g id="PathCollection_27">
     <g>
      <use xlink:href="#m5f20cf469d" x="439.416695" y="349.686556" style="fill: #3695a1; fill-opacity: 0.8; stroke: #3695a1; stroke-opacity: 0.8"/>
     </g>
    </g>
    <g id="text_45">
     <!-- 1 -->
     <g transform="translate(457.416695 352.311556) scale(0.1 -0.1)">
      <use xlink:href="#DejaVuSans-31"/>
     </g>
    </g>
   </g>
  </g>
 </g>
</svg>
